<mxfile host="app.diagrams.net" modified="2024-03-21T06:46:16.203Z" agent="Mozilla/5.0 (X11; Linux x86_64; rv:109.0) Gecko/20100101 Firefox/115.0" version="24.0.7" etag="ghqbONdsBkL5HK8c_XRG" type="github">
  <diagram name="Page-1" id="V1DtWyVgGoAc-8nqLZMy">
    <mxGraphModel>
      <root>
        <mxCell id="0" />
        <mxCell id="1" parent="0" />
      </root>
    </mxGraphModel>
  </diagram>
</mxfile>
